<svg width="1920" height="1084" viewBox="0 0 1920 1084" fill="none" xmlns="http://www.w3.org/2000/svg">
<g clip-path="url(#clip0_391_22)">
<rect width="1920" height="1084" fill="black"/>
<circle cx="703.981" cy="263.924" r="7.9" transform="rotate(-90 703.981 263.924)" fill="#7B86EA"/>
<circle cx="703.981" cy="221.598" r="7.9" transform="rotate(-90 703.981 221.598)" fill="#7B86EA"/>
<circle cx="666.946" cy="306.249" r="7.9" transform="rotate(-90 666.946 306.249)" fill="#7B86EA"/>
<circle cx="739.957" cy="263.924" r="7.9" transform="rotate(-90 739.957 263.924)" fill="#7B86EA"/>
<circle cx="739.957" cy="305.191" r="7.9" transform="rotate(-90 739.957 305.191)" fill="#7B86EA"/>
<circle cx="702.923" cy="306.249" r="7.9" transform="rotate(-90 702.923 306.249)" fill="#7B86EA"/>
<circle cx="593.935" cy="306.249" r="7.9" transform="rotate(-90 593.935 306.249)" fill="#7B86EA"/>
<circle cx="556.9" cy="390.9" r="7.9" transform="rotate(-90 556.9 390.9)" fill="#7B86EA"/>
<circle cx="556.9" cy="347.517" r="7.9" transform="rotate(-90 556.9 347.517)" fill="#7B86EA"/>
<circle cx="593.935" cy="221.598" r="7.9" transform="rotate(-90 593.935 221.598)" fill="#7B86EA"/>
<circle cx="593.935" cy="263.924" r="7.9" transform="rotate(-90 593.935 263.924)" fill="#7B86EA"/>
<circle cx="630.97" cy="263.924" r="7.9" transform="rotate(-90 630.97 263.924)" fill="#7B86EA"/>
<circle cx="630.97" cy="179.273" r="7.9" transform="rotate(-90 630.97 179.273)" fill="#7B86EA"/>
<circle cx="630.97" cy="221.598" r="7.9" transform="rotate(-90 630.97 221.598)" fill="#7B86EA"/>
<circle cx="630.97" cy="390.9" r="7.9" transform="rotate(-90 630.97 390.9)" fill="#7B86EA"/>
<circle cx="593.935" cy="390.9" r="7.9" transform="rotate(-90 593.935 390.9)" fill="#7B86EA"/>
<circle cx="630.97" cy="306.249" r="7.9" transform="rotate(-90 630.97 306.249)" fill="#7B86EA"/>
<circle cx="630.97" cy="348.575" r="7.9" transform="rotate(-90 630.97 348.575)" fill="#7B86EA"/>
<circle cx="666.946" cy="221.598" r="7.9" transform="rotate(-90 666.946 221.598)" fill="#7B86EA"/>
<circle cx="666.946" cy="347.517" r="7.9" transform="rotate(-90 666.946 347.517)" fill="#7B86EA"/>
<ellipse cx="1744.84" cy="850.732" rx="7.8991" ry="7.9" transform="rotate(180 1744.84 850.732)" fill="#7B86EA"/>
<ellipse cx="1702.51" cy="850.732" rx="7.8991" ry="7.9" transform="rotate(180 1702.51 850.732)" fill="#7B86EA"/>
<ellipse cx="1787.16" cy="887.766" rx="7.8991" ry="7.9" transform="rotate(180 1787.16 887.766)" fill="#7B86EA"/>
<ellipse cx="1744.84" cy="814.755" rx="7.8991" ry="7.9" transform="rotate(180 1744.84 814.755)" fill="#7B86EA"/>
<ellipse cx="1786.1" cy="814.755" rx="7.8991" ry="7.9" transform="rotate(180 1786.1 814.755)" fill="#7B86EA"/>
<ellipse cx="1787.16" cy="851.79" rx="7.8991" ry="7.9" transform="rotate(180 1787.16 851.79)" fill="#7B86EA"/>
<ellipse cx="1787.16" cy="960.778" rx="7.8991" ry="7.9" transform="rotate(180 1787.16 960.778)" fill="#7B86EA"/>
<ellipse cx="1871.81" cy="997.813" rx="7.8991" ry="7.9" transform="rotate(180 1871.81 997.813)" fill="#7B86EA"/>
<ellipse cx="1828.43" cy="997.813" rx="7.8991" ry="7.9" transform="rotate(180 1828.43 997.813)" fill="#7B86EA"/>
<ellipse cx="1744.84" cy="960.778" rx="7.8991" ry="7.9" transform="rotate(180 1744.84 960.778)" fill="#7B86EA"/>
<ellipse cx="1660.19" cy="923.743" rx="7.8991" ry="7.9" transform="rotate(180 1660.19 923.743)" fill="#7B86EA"/>
<ellipse cx="1702.51" cy="923.743" rx="7.8991" ry="7.9" transform="rotate(180 1702.51 923.743)" fill="#7B86EA"/>
<ellipse cx="1871.81" cy="923.743" rx="7.8991" ry="7.9" transform="rotate(180 1871.81 923.743)" fill="#7B86EA"/>
<ellipse cx="1871.81" cy="960.778" rx="7.8991" ry="7.9" transform="rotate(180 1871.81 960.778)" fill="#7B86EA"/>
<ellipse cx="1829.49" cy="960.778" rx="7.8991" ry="7.9" transform="rotate(180 1829.49 960.778)" fill="#7B86EA"/>
<ellipse cx="1787.16" cy="923.743" rx="7.8991" ry="7.9" transform="rotate(180 1787.16 923.743)" fill="#7B86EA"/>
<ellipse cx="1744.84" cy="887.766" rx="7.8991" ry="7.9" transform="rotate(180 1744.84 887.766)" fill="#7B86EA"/>
<ellipse cx="1702.51" cy="887.766" rx="7.8991" ry="7.9" transform="rotate(180 1702.51 887.766)" fill="#7B86EA"/>
<ellipse cx="1828.43" cy="887.766" rx="7.8991" ry="7.9" transform="rotate(180 1828.43 887.766)" fill="#7B86EA"/>
<ellipse cx="1546.98" cy="650.55" rx="7.8991" ry="7.9" transform="rotate(-90 1546.98 650.55)" fill="#7B86EA"/>
<ellipse cx="1546.98" cy="608.224" rx="7.8991" ry="7.9" transform="rotate(-90 1546.98 608.224)" fill="#7B86EA"/>
<ellipse cx="1509.95" cy="692.875" rx="7.8991" ry="7.9" transform="rotate(-90 1509.95 692.875)" fill="#7B86EA"/>
<ellipse cx="1582.96" cy="650.55" rx="7.8991" ry="7.9" transform="rotate(-90 1582.96 650.55)" fill="#7B86EA"/>
<ellipse cx="1545.92" cy="692.875" rx="7.8991" ry="7.9" transform="rotate(-90 1545.92 692.875)" fill="#7B86EA"/>
<ellipse cx="1436.93" cy="692.875" rx="7.8991" ry="7.9" transform="rotate(-90 1436.93 692.875)" fill="#7B86EA"/>
<ellipse cx="1399.9" cy="777.526" rx="7.8991" ry="7.9" transform="rotate(-90 1399.9 777.526)" fill="#7B86EA"/>
<ellipse cx="1399.9" cy="734.143" rx="7.8991" ry="7.9" transform="rotate(-90 1399.9 734.143)" fill="#7B86EA"/>
<ellipse cx="1436.93" cy="608.224" rx="7.8991" ry="7.9" transform="rotate(-90 1436.93 608.224)" fill="#7B86EA"/>
<ellipse cx="1436.93" cy="650.55" rx="7.8991" ry="7.9" transform="rotate(-90 1436.93 650.55)" fill="#7B86EA"/>
<ellipse cx="1473.97" cy="650.55" rx="7.8991" ry="7.9" transform="rotate(-90 1473.97 650.55)" fill="#7B86EA"/>
<ellipse cx="1473.97" cy="565.899" rx="7.8991" ry="7.9" transform="rotate(-90 1473.97 565.899)" fill="#7B86EA"/>
<ellipse cx="1473.97" cy="608.224" rx="7.8991" ry="7.9" transform="rotate(-90 1473.97 608.224)" fill="#7B86EA"/>
<ellipse cx="1473.97" cy="777.526" rx="7.8991" ry="7.9" transform="rotate(-90 1473.97 777.526)" fill="#7B86EA"/>
<ellipse cx="1436.93" cy="777.526" rx="7.8991" ry="7.9" transform="rotate(-90 1436.93 777.526)" fill="#7B86EA"/>
<ellipse cx="1473.97" cy="692.875" rx="7.8991" ry="7.9" transform="rotate(-90 1473.97 692.875)" fill="#7B86EA"/>
<ellipse cx="1473.97" cy="735.201" rx="7.8991" ry="7.9" transform="rotate(-90 1473.97 735.201)" fill="#7B86EA"/>
<ellipse cx="1509.95" cy="608.224" rx="7.8991" ry="7.9" transform="rotate(-90 1509.95 608.224)" fill="#7B86EA"/>
<ellipse cx="1509.95" cy="734.143" rx="7.8991" ry="7.9" transform="rotate(-90 1509.95 734.143)" fill="#7B86EA"/>
<circle cx="841.9" cy="61.9" r="7.9" transform="rotate(-90 841.9 61.9)" fill="#7B86EA"/>
<circle cx="841.9" cy="21.9" r="7.9" transform="rotate(-90 841.9 21.9)" fill="#7B86EA"/>
<circle cx="806.9" cy="101.9" r="7.9" transform="rotate(-90 806.9 101.9)" fill="#7B86EA"/>
<circle cx="875.9" cy="61.9" r="7.9" transform="rotate(-90 875.9 61.9)" fill="#7B86EA"/>
<circle cx="875.9" cy="100.9" r="7.9" transform="rotate(-90 875.9 100.9)" fill="#7B86EA"/>
<circle cx="737.9" cy="101.9" r="7.9" transform="rotate(-90 737.9 101.9)" fill="#7B86EA"/>
<circle cx="702.9" cy="181.9" r="7.9" transform="rotate(-90 702.9 181.9)" fill="#7B86EA"/>
<circle cx="702.9" cy="140.9" r="7.9" transform="rotate(-90 702.9 140.9)" fill="#7B86EA"/>
<circle cx="737.9" cy="21.9" r="7.9" transform="rotate(-90 737.9 21.9)" fill="#7B86EA"/>
<circle cx="737.9" cy="61.9" r="7.9" transform="rotate(-90 737.9 61.9)" fill="#7B86EA"/>
<circle cx="772.9" cy="21.9" r="7.9" transform="rotate(-90 772.9 21.9)" fill="#7B86EA"/>
<circle cx="772.9" cy="181.9" r="7.9" transform="rotate(-90 772.9 181.9)" fill="#7B86EA"/>
<circle cx="737.9" cy="181.9" r="7.9" transform="rotate(-90 737.9 181.9)" fill="#7B86EA"/>
<circle cx="737.9" cy="141.9" r="7.9" transform="rotate(-90 737.9 141.9)" fill="#7B86EA"/>
<circle cx="772.9" cy="101.9" r="7.9" transform="rotate(-90 772.9 101.9)" fill="#7B86EA"/>
<circle cx="772.9" cy="141.9" r="7.9" transform="rotate(-90 772.9 141.9)" fill="#7B86EA"/>
<circle cx="806.9" cy="61.9" r="7.9" transform="rotate(-90 806.9 61.9)" fill="#7B86EA"/>
<circle cx="806.9" cy="21.9" r="7.9" transform="rotate(-90 806.9 21.9)" fill="#7B86EA"/>
<circle cx="806.9" cy="140.9" r="7.9" transform="rotate(-90 806.9 140.9)" fill="#7B86EA"/>
<circle cx="1632.2" cy="319.981" r="7.9" fill="#7B86EA"/>
<circle cx="1547.55" cy="282.946" r="7.9" fill="#7B86EA"/>
<circle cx="1589.88" cy="355.957" r="7.9" fill="#7B86EA"/>
<circle cx="1548.61" cy="355.957" r="7.9" fill="#7B86EA"/>
<circle cx="1547.55" cy="318.923" r="7.9" fill="#7B86EA"/>
<circle cx="1547.55" cy="209.935" r="7.9" fill="#7B86EA"/>
<circle cx="1462.9" cy="172.9" r="7.9" fill="#7B86EA"/>
<circle cx="1506.28" cy="172.9" r="7.9" fill="#7B86EA"/>
<circle cx="1632.2" cy="209.935" r="7.9" fill="#7B86EA"/>
<circle cx="1589.88" cy="209.935" r="7.9" fill="#7B86EA"/>
<circle cx="1589.88" cy="246.97" r="7.9" fill="#7B86EA"/>
<circle cx="1674.53" cy="246.97" r="7.9" fill="#7B86EA"/>
<circle cx="1632.2" cy="246.97" r="7.9" fill="#7B86EA"/>
<circle cx="1462.9" cy="246.97" r="7.9" fill="#7B86EA"/>
<circle cx="1462.9" cy="209.935" r="7.9" fill="#7B86EA"/>
<circle cx="1505.23" cy="209.935" r="7.9" fill="#7B86EA"/>
<circle cx="1505.23" cy="246.97" r="7.9" fill="#7B86EA"/>
<circle cx="1589.88" cy="282.946" r="7.9" fill="#7B86EA"/>
<circle cx="1506.28" cy="282.946" r="7.9" fill="#7B86EA"/>
<circle cx="1794.9" cy="421.9" r="7.9" fill="#7B86EA"/>
<circle cx="1834.9" cy="421.9" r="7.9" fill="#7B86EA"/>
<circle cx="1794.9" cy="455.9" r="7.9" fill="#7B86EA"/>
<circle cx="1755.9" cy="455.9" r="7.9" fill="#7B86EA"/>
<circle cx="1754.9" cy="420.9" r="7.9" fill="#7B86EA"/>
<circle cx="1754.9" cy="317.9" r="7.9" fill="#7B86EA"/>
<circle cx="1674.9" cy="282.9" r="7.9" fill="#7B86EA"/>
<circle cx="1715.9" cy="282.9" r="7.9" fill="#7B86EA"/>
<circle cx="1834.9" cy="317.9" r="7.9" fill="#7B86EA"/>
<circle cx="1794.9" cy="317.9" r="7.9" fill="#7B86EA"/>
<circle cx="1794.9" cy="352.9" r="7.9" fill="#7B86EA"/>
<circle cx="1874.9" cy="352.9" r="7.9" fill="#7B86EA"/>
<circle cx="1834.9" cy="352.9" r="7.9" fill="#7B86EA"/>
<circle cx="1674.9" cy="352.9" r="7.9" fill="#7B86EA"/>
<circle cx="1674.9" cy="317.9" r="7.9" fill="#7B86EA"/>
<circle cx="1714.9" cy="317.9" r="7.9" fill="#7B86EA"/>
<circle cx="1754.9" cy="352.9" r="7.9" fill="#7B86EA"/>
<circle cx="1714.9" cy="352.9" r="7.9" fill="#7B86EA"/>
<circle cx="1794.9" cy="386.9" r="7.9" fill="#7B86EA"/>
<circle cx="1834.9" cy="386.9" r="7.9" fill="#7B86EA"/>
<circle cx="1715.9" cy="386.9" r="7.9" fill="#7B86EA"/>
<circle cx="245.876" cy="875.981" r="7.9" fill="#7B86EA"/>
<circle cx="288.202" cy="875.981" r="7.9" fill="#7B86EA"/>
<circle cx="203.551" cy="838.946" r="7.9" fill="#7B86EA"/>
<circle cx="245.876" cy="911.957" r="7.9" fill="#7B86EA"/>
<circle cx="204.609" cy="911.957" r="7.9" fill="#7B86EA"/>
<circle cx="203.551" cy="874.923" r="7.9" fill="#7B86EA"/>
<circle cx="203.551" cy="765.935" r="7.9" fill="#7B86EA"/>
<circle cx="118.9" cy="728.9" r="7.9" fill="#7B86EA"/>
<circle cx="162.284" cy="728.9" r="7.9" fill="#7B86EA"/>
<circle cx="288.202" cy="765.935" r="7.9" fill="#7B86EA"/>
<circle cx="245.876" cy="765.935" r="7.9" fill="#7B86EA"/>
<circle cx="245.876" cy="802.97" r="7.9" fill="#7B86EA"/>
<circle cx="330.527" cy="802.97" r="7.9" fill="#7B86EA"/>
<circle cx="118.9" cy="802.97" r="7.9" fill="#7B86EA"/>
<circle cx="118.9" cy="765.935" r="7.9" fill="#7B86EA"/>
<circle cx="161.225" cy="765.935" r="7.9" fill="#7B86EA"/>
<circle cx="203.551" cy="802.97" r="7.9" fill="#7B86EA"/>
<circle cx="245.876" cy="838.946" r="7.9" fill="#7B86EA"/>
<circle cx="288.202" cy="838.946" r="7.9" fill="#7B86EA"/>
<circle cx="162.284" cy="838.946" r="7.9" fill="#7B86EA"/>
<circle cx="407.9" cy="798.9" r="7.9" fill="#7B86EA"/>
<circle cx="447.9" cy="798.9" r="7.9" fill="#7B86EA"/>
<circle cx="367.9" cy="763.9" r="7.9" fill="#7B86EA"/>
<circle cx="407.9" cy="832.9" r="7.9" fill="#7B86EA"/>
<circle cx="368.9" cy="832.9" r="7.9" fill="#7B86EA"/>
<circle cx="367.9" cy="797.9" r="7.9" fill="#7B86EA"/>
<circle cx="367.9" cy="694.9" r="7.9" fill="#7B86EA"/>
<circle cx="328.9" cy="659.9" r="7.9" fill="#7B86EA"/>
<circle cx="447.9" cy="694.9" r="7.9" fill="#7B86EA"/>
<circle cx="407.9" cy="694.9" r="7.9" fill="#7B86EA"/>
<circle cx="407.9" cy="729.9" r="7.9" fill="#7B86EA"/>
<circle cx="487.9" cy="729.9" r="7.9" fill="#7B86EA"/>
<circle cx="447.9" cy="729.9" r="7.9" fill="#7B86EA"/>
<circle cx="287.9" cy="729.9" r="7.9" fill="#7B86EA"/>
<circle cx="287.9" cy="694.9" r="7.9" fill="#7B86EA"/>
<circle cx="327.9" cy="694.9" r="7.9" fill="#7B86EA"/>
<circle cx="367.9" cy="729.9" r="7.9" fill="#7B86EA"/>
<circle cx="327.9" cy="729.9" r="7.9" fill="#7B86EA"/>
<circle cx="407.9" cy="763.9" r="7.9" fill="#7B86EA"/>
<circle cx="447.9" cy="763.9" r="7.9" fill="#7B86EA"/>
<circle cx="328.9" cy="763.9" r="7.9" fill="#7B86EA"/>
<circle cx="207.9" cy="694.9" r="7.9" fill="#7B86EA"/>
<circle cx="247.9" cy="694.9" r="7.9" fill="#7B86EA"/>
<circle cx="303.981" cy="264.054" r="7.9" transform="rotate(-90 303.981 264.054)" fill="#7B86EA"/>
<circle cx="303.981" cy="221.728" r="7.9" transform="rotate(-90 303.981 221.728)" fill="#7B86EA"/>
<circle cx="339.957" cy="264.054" r="7.9" transform="rotate(-90 339.957 264.054)" fill="#7B86EA"/>
<circle cx="193.935" cy="221.728" r="7.9" transform="rotate(-90 193.935 221.728)" fill="#7B86EA"/>
<circle cx="193.935" cy="264.054" r="7.9" transform="rotate(-90 193.935 264.054)" fill="#7B86EA"/>
<circle cx="230.969" cy="264.054" r="7.9" transform="rotate(-90 230.969 264.054)" fill="#7B86EA"/>
<circle cx="230.969" cy="179.403" r="7.9" transform="rotate(-90 230.969 179.403)" fill="#7B86EA"/>
<circle cx="266.946" cy="264.054" r="7.9" transform="rotate(-90 266.946 264.054)" fill="#7B86EA"/>
<circle cx="266.946" cy="221.728" r="7.9" transform="rotate(-90 266.946 221.728)" fill="#7B86EA"/>
<circle cx="226.9" cy="102.03" r="7.9" transform="rotate(-90 226.9 102.03)" fill="#7B86EA"/>
<circle cx="226.9" cy="62.0302" r="7.9" transform="rotate(-90 226.9 62.0302)" fill="#7B86EA"/>
<circle cx="191.9" cy="142.03" r="7.9" transform="rotate(-90 191.9 142.03)" fill="#7B86EA"/>
<circle cx="260.9" cy="102.03" r="7.9" transform="rotate(-90 260.9 102.03)" fill="#7B86EA"/>
<circle cx="260.9" cy="141.03" r="7.9" transform="rotate(-90 260.9 141.03)" fill="#7B86EA"/>
<circle cx="225.9" cy="142.03" r="7.9" transform="rotate(-90 225.9 142.03)" fill="#7B86EA"/>
<circle cx="122.9" cy="142.03" r="7.9" transform="rotate(-90 122.9 142.03)" fill="#7B86EA"/>
<circle cx="87.9" cy="181.03" r="7.9" transform="rotate(-90 87.9 181.03)" fill="#7B86EA"/>
<circle cx="122.9" cy="62.0304" r="7.9" transform="rotate(-90 122.9 62.0304)" fill="#7B86EA"/>
<circle cx="122.9" cy="102.03" r="7.9" transform="rotate(-90 122.9 102.03)" fill="#7B86EA"/>
<circle cx="157.9" cy="102.03" r="7.9" transform="rotate(-90 157.9 102.03)" fill="#7B86EA"/>
<circle cx="157.9" cy="62.0302" r="7.9" transform="rotate(-90 157.9 62.0302)" fill="#7B86EA"/>
<circle cx="157.9" cy="222.03" r="7.9" transform="rotate(-90 157.9 222.03)" fill="#7B86EA"/>
<circle cx="122.9" cy="222.03" r="7.9" transform="rotate(-90 122.9 222.03)" fill="#7B86EA"/>
<circle cx="122.9" cy="182.03" r="7.9" transform="rotate(-90 122.9 182.03)" fill="#7B86EA"/>
<circle cx="157.9" cy="142.03" r="7.9" transform="rotate(-90 157.9 142.03)" fill="#7B86EA"/>
<circle cx="157.9" cy="182.03" r="7.9" transform="rotate(-90 157.9 182.03)" fill="#7B86EA"/>
<circle cx="191.9" cy="102.03" r="7.9" transform="rotate(-90 191.9 102.03)" fill="#7B86EA"/>
<circle cx="191.9" cy="62.0302" r="7.9" transform="rotate(-90 191.9 62.0302)" fill="#7B86EA"/>
<circle cx="191.9" cy="181.03" r="7.9" transform="rotate(-90 191.9 181.03)" fill="#7B86EA"/>
<circle cx="122.9" cy="262.03" r="7.9" transform="rotate(-90 122.9 262.03)" fill="#7B86EA"/>
<circle cx="1130.92" cy="363.876" r="7.9" transform="rotate(180 1130.92 363.876)" fill="#7B86EA"/>
<circle cx="1088.6" cy="363.876" r="7.9" transform="rotate(180 1088.6 363.876)" fill="#7B86EA"/>
<circle cx="1130.92" cy="327.9" r="7.9" transform="rotate(180 1130.92 327.9)" fill="#7B86EA"/>
<circle cx="1088.6" cy="473.923" r="7.9" transform="rotate(180 1088.6 473.923)" fill="#7B86EA"/>
<circle cx="1130.92" cy="473.923" r="7.9" transform="rotate(180 1130.92 473.923)" fill="#7B86EA"/>
<circle cx="1130.92" cy="436.888" r="7.9" transform="rotate(180 1130.92 436.888)" fill="#7B86EA"/>
<circle cx="1046.27" cy="436.888" r="7.9" transform="rotate(180 1046.27 436.888)" fill="#7B86EA"/>
<circle cx="1130.92" cy="400.911" r="7.9" transform="rotate(180 1130.92 400.911)" fill="#7B86EA"/>
<circle cx="1088.6" cy="400.911" r="7.9" transform="rotate(180 1088.6 400.911)" fill="#7B86EA"/>
<circle cx="1008.9" cy="475.957" r="7.9" transform="rotate(180 1008.9 475.957)" fill="#7B86EA"/>
<circle cx="1007.9" cy="406.957" r="7.9" transform="rotate(180 1007.9 406.957)" fill="#7B86EA"/>
<circle cx="1008.9" cy="441.957" r="7.9" transform="rotate(180 1008.9 441.957)" fill="#7B86EA"/>
<circle cx="1088.9" cy="509.957" r="7.9" transform="rotate(180 1088.9 509.957)" fill="#7B86EA"/>
<circle cx="1088.9" cy="544.957" r="7.9" transform="rotate(180 1088.9 544.957)" fill="#7B86EA"/>
<circle cx="1048.9" cy="544.957" r="7.9" transform="rotate(180 1048.9 544.957)" fill="#7B86EA"/>
<circle cx="1008.9" cy="509.957" r="7.9" transform="rotate(180 1008.9 509.957)" fill="#7B86EA"/>
<circle cx="1048.9" cy="509.957" r="7.9" transform="rotate(180 1048.9 509.957)" fill="#7B86EA"/>
<circle cx="1047.9" cy="475.957" r="7.9" transform="rotate(180 1047.9 475.957)" fill="#7B86EA"/>
<circle cx="1128.9" cy="544.957" r="7.9" transform="rotate(180 1128.9 544.957)" fill="#7B86EA"/>
<circle cx="780.9" cy="1061.94" r="7.9" fill="#7B86EA"/>
<circle cx="823.225" cy="1061.94" r="7.9" fill="#7B86EA"/>
<circle cx="865.225" cy="951.935" r="7.9" fill="#7B86EA"/>
<circle cx="822.9" cy="951.935" r="7.9" fill="#7B86EA"/>
<circle cx="822.9" cy="988.97" r="7.9" fill="#7B86EA"/>
<circle cx="907.551" cy="988.97" r="7.9" fill="#7B86EA"/>
<circle cx="780.9" cy="1024.9" r="7.9" fill="#7B86EA"/>
<circle cx="823.225" cy="1024.9" r="7.9" fill="#7B86EA"/>
<circle cx="984.923" cy="984.9" r="7.9" fill="#7B86EA"/>
<circle cx="1024.92" cy="984.9" r="7.9" fill="#7B86EA"/>
<circle cx="944.923" cy="949.9" r="7.9" fill="#7B86EA"/>
<circle cx="984.923" cy="1018.9" r="7.9" fill="#7B86EA"/>
<circle cx="945.923" cy="1018.9" r="7.9" fill="#7B86EA"/>
<circle cx="944.923" cy="983.9" r="7.9" fill="#7B86EA"/>
<circle cx="944.923" cy="880.9" r="7.9" fill="#7B86EA"/>
<circle cx="905.923" cy="845.9" r="7.9" fill="#7B86EA"/>
<circle cx="1024.92" cy="880.9" r="7.9" fill="#7B86EA"/>
<circle cx="984.923" cy="880.9" r="7.9" fill="#7B86EA"/>
<circle cx="984.923" cy="915.9" r="7.9" fill="#7B86EA"/>
<circle cx="1024.92" cy="915.9" r="7.9" fill="#7B86EA"/>
<circle cx="864.923" cy="915.9" r="7.9" fill="#7B86EA"/>
<circle cx="864.923" cy="880.9" r="7.9" fill="#7B86EA"/>
<circle cx="904.923" cy="880.9" r="7.9" fill="#7B86EA"/>
<circle cx="944.923" cy="915.9" r="7.9" fill="#7B86EA"/>
<circle cx="904.923" cy="915.9" r="7.9" fill="#7B86EA"/>
<circle cx="984.923" cy="949.9" r="7.9" fill="#7B86EA"/>
<circle cx="1024.92" cy="949.9" r="7.9" fill="#7B86EA"/>
<circle cx="905.923" cy="949.9" r="7.9" fill="#7B86EA"/>
<circle cx="824.923" cy="880.9" r="7.9" fill="#7B86EA"/>
<circle cx="167.9" cy="659.9" r="7.9" fill="#7B86EA"/>
<circle cx="167.9" cy="693.9" r="7.9" fill="#7B86EA"/>
<circle cx="167.9" cy="590.9" r="7.9" fill="#7B86EA"/>
<circle cx="87.9" cy="555.9" r="7.9" fill="#7B86EA"/>
<circle cx="128.9" cy="555.9" r="7.9" fill="#7B86EA"/>
<circle cx="207.9" cy="590.9" r="7.9" fill="#7B86EA"/>
<circle cx="207.9" cy="625.9" r="7.9" fill="#7B86EA"/>
<circle cx="87.9" cy="625.9" r="7.9" fill="#7B86EA"/>
<circle cx="87.9" cy="590.9" r="7.9" fill="#7B86EA"/>
<circle cx="127.9" cy="590.9" r="7.9" fill="#7B86EA"/>
<circle cx="167.9" cy="625.9" r="7.9" fill="#7B86EA"/>
<circle cx="127.9" cy="625.9" r="7.9" fill="#7B86EA"/>
<circle cx="207.9" cy="659.9" r="7.9" fill="#7B86EA"/>
<circle cx="128.9" cy="659.9" r="7.9" fill="#7B86EA"/>
</g>
<defs>
<clipPath id="clip0_391_22">
<rect width="1920" height="1084" fill="white"/>
</clipPath>
</defs>
</svg>
