<svg width="1920" height="1084" viewBox="0 0 1920 1084" fill="none" xmlns="http://www.w3.org/2000/svg">
<g clip-path="url(#clip0_500_5)">
<rect width="1920" height="1084" fill="black"/>
<ellipse cx="413.55" cy="585.877" rx="7.8991" ry="7.9" transform="rotate(180 413.55 585.877)" fill="#7B86EA"/>
<ellipse cx="371.224" cy="585.877" rx="7.8991" ry="7.9" transform="rotate(180 371.224 585.877)" fill="#7B86EA"/>
<ellipse cx="455.875" cy="622.911" rx="7.8991" ry="7.9" transform="rotate(180 455.875 622.911)" fill="#7B86EA"/>
<ellipse cx="413.55" cy="549.9" rx="7.8991" ry="7.9" transform="rotate(180 413.55 549.9)" fill="#7B86EA"/>
<ellipse cx="454.817" cy="549.9" rx="7.8991" ry="7.9" transform="rotate(180 454.817 549.9)" fill="#7B86EA"/>
<ellipse cx="455.875" cy="586.935" rx="7.8991" ry="7.9" transform="rotate(180 455.875 586.935)" fill="#7B86EA"/>
<ellipse cx="455.875" cy="695.923" rx="7.8991" ry="7.9" transform="rotate(180 455.875 695.923)" fill="#7B86EA"/>
<ellipse cx="540.526" cy="732.957" rx="7.8991" ry="7.9" transform="rotate(180 540.526 732.957)" fill="#7B86EA"/>
<ellipse cx="497.142" cy="732.957" rx="7.8991" ry="7.9" transform="rotate(180 497.142 732.957)" fill="#7B86EA"/>
<ellipse cx="413.55" cy="695.923" rx="7.8991" ry="7.9" transform="rotate(180 413.55 695.923)" fill="#7B86EA"/>
<ellipse cx="328.899" cy="658.888" rx="7.8991" ry="7.9" transform="rotate(180 328.899 658.888)" fill="#7B86EA"/>
<ellipse cx="371.224" cy="658.888" rx="7.8991" ry="7.9" transform="rotate(180 371.224 658.888)" fill="#7B86EA"/>
<ellipse cx="540.526" cy="658.888" rx="7.8991" ry="7.9" transform="rotate(180 540.526 658.888)" fill="#7B86EA"/>
<ellipse cx="540.526" cy="695.923" rx="7.8991" ry="7.9" transform="rotate(180 540.526 695.923)" fill="#7B86EA"/>
<ellipse cx="498.201" cy="695.923" rx="7.8991" ry="7.9" transform="rotate(180 498.201 695.923)" fill="#7B86EA"/>
<ellipse cx="455.875" cy="658.888" rx="7.8991" ry="7.9" transform="rotate(180 455.875 658.888)" fill="#7B86EA"/>
<ellipse cx="413.55" cy="622.911" rx="7.8991" ry="7.9" transform="rotate(180 413.55 622.911)" fill="#7B86EA"/>
<ellipse cx="371.224" cy="622.911" rx="7.8991" ry="7.9" transform="rotate(180 371.224 622.911)" fill="#7B86EA"/>
<ellipse cx="497.142" cy="622.911" rx="7.8991" ry="7.9" transform="rotate(180 497.142 622.911)" fill="#7B86EA"/>
<ellipse cx="1715.88" cy="262.981" rx="7.8991" ry="7.9" fill="#7B86EA"/>
<ellipse cx="1758.2" cy="262.981" rx="7.8991" ry="7.9" fill="#7B86EA"/>
<ellipse cx="1673.55" cy="225.946" rx="7.8991" ry="7.9" fill="#7B86EA"/>
<ellipse cx="1715.88" cy="298.958" rx="7.8991" ry="7.9" fill="#7B86EA"/>
<ellipse cx="1673.55" cy="261.922" rx="7.8991" ry="7.9" fill="#7B86EA"/>
<ellipse cx="1673.55" cy="152.935" rx="7.8991" ry="7.9" fill="#7B86EA"/>
<ellipse cx="1588.9" cy="115.9" rx="7.8991" ry="7.9" fill="#7B86EA"/>
<ellipse cx="1632.28" cy="115.9" rx="7.8991" ry="7.9" fill="#7B86EA"/>
<ellipse cx="1758.2" cy="152.935" rx="7.8991" ry="7.9" fill="#7B86EA"/>
<ellipse cx="1715.88" cy="152.935" rx="7.8991" ry="7.9" fill="#7B86EA"/>
<ellipse cx="1715.88" cy="189.969" rx="7.8991" ry="7.9" fill="#7B86EA"/>
<ellipse cx="1800.53" cy="189.969" rx="7.8991" ry="7.9" fill="#7B86EA"/>
<ellipse cx="1758.2" cy="189.969" rx="7.8991" ry="7.9" fill="#7B86EA"/>
<ellipse cx="1588.9" cy="189.969" rx="7.8991" ry="7.9" fill="#7B86EA"/>
<ellipse cx="1588.9" cy="152.935" rx="7.8991" ry="7.9" fill="#7B86EA"/>
<ellipse cx="1673.55" cy="189.969" rx="7.8991" ry="7.9" fill="#7B86EA"/>
<ellipse cx="1631.22" cy="189.969" rx="7.8991" ry="7.9" fill="#7B86EA"/>
<ellipse cx="1758.2" cy="225.946" rx="7.8991" ry="7.9" fill="#7B86EA"/>
<ellipse cx="1632.28" cy="225.946" rx="7.8991" ry="7.9" fill="#7B86EA"/>
<circle cx="765.9" cy="156.9" r="7.9" fill="#7B86EA"/>
<circle cx="805.9" cy="156.9" r="7.9" fill="#7B86EA"/>
<circle cx="725.9" cy="121.9" r="7.9" fill="#7B86EA"/>
<circle cx="765.9" cy="190.9" r="7.9" fill="#7B86EA"/>
<circle cx="726.9" cy="190.9" r="7.9" fill="#7B86EA"/>
<circle cx="725.9" cy="52.9" r="7.9" fill="#7B86EA"/>
<circle cx="645.9" cy="17.9" r="7.9" fill="#7B86EA"/>
<circle cx="686.9" cy="17.9" r="7.9" fill="#7B86EA"/>
<circle cx="805.9" cy="52.9002" r="7.9" fill="#7B86EA"/>
<circle cx="765.9" cy="52.9" r="7.9" fill="#7B86EA"/>
<circle cx="845.9" cy="87.9002" r="7.9" fill="#7B86EA"/>
<circle cx="805.9" cy="87.9" r="7.9" fill="#7B86EA"/>
<circle cx="645.9" cy="87.9" r="7.9" fill="#7B86EA"/>
<circle cx="645.9" cy="52.9" r="7.9" fill="#7B86EA"/>
<circle cx="685.9" cy="52.9" r="7.9" fill="#7B86EA"/>
<circle cx="725.9" cy="87.9" r="7.9" fill="#7B86EA"/>
<circle cx="685.9" cy="87.9" r="7.9" fill="#7B86EA"/>
<circle cx="765.9" cy="121.9" r="7.9" fill="#7B86EA"/>
<circle cx="805.9" cy="121.9" r="7.9" fill="#7B86EA"/>
<circle cx="686.9" cy="121.9" r="7.9" fill="#7B86EA"/>
<circle cx="1035.98" cy="362.9" r="7.9" transform="rotate(-90 1035.98 362.9)" fill="#7B86EA"/>
<circle cx="998.946" cy="447.551" r="7.9" transform="rotate(-90 998.946 447.551)" fill="#7B86EA"/>
<circle cx="1071.96" cy="405.225" r="7.9" transform="rotate(-90 1071.96 405.225)" fill="#7B86EA"/>
<circle cx="1071.96" cy="446.493" r="7.9" transform="rotate(-90 1071.96 446.493)" fill="#7B86EA"/>
<circle cx="1034.92" cy="447.551" r="7.9" transform="rotate(-90 1034.92 447.551)" fill="#7B86EA"/>
<circle cx="925.935" cy="447.551" r="7.9" transform="rotate(-90 925.935 447.551)" fill="#7B86EA"/>
<circle cx="888.9" cy="532.202" r="7.9" transform="rotate(-90 888.9 532.202)" fill="#7B86EA"/>
<circle cx="888.9" cy="488.818" r="7.9" transform="rotate(-90 888.9 488.818)" fill="#7B86EA"/>
<circle cx="925.935" cy="362.9" r="7.9" transform="rotate(-90 925.935 362.9)" fill="#7B86EA"/>
<circle cx="925.935" cy="405.225" r="7.9" transform="rotate(-90 925.935 405.225)" fill="#7B86EA"/>
<circle cx="962.969" cy="405.225" r="7.9" transform="rotate(-90 962.969 405.225)" fill="#7B86EA"/>
<circle cx="1639.9" cy="782.273" r="7.9" transform="rotate(-90 1639.9 782.273)" fill="#7B86EA"/>
<circle cx="962.969" cy="362.9" r="7.9" transform="rotate(-90 962.969 362.9)" fill="#7B86EA"/>
<circle cx="962.969" cy="532.202" r="7.9" transform="rotate(-90 962.969 532.202)" fill="#7B86EA"/>
<circle cx="925.935" cy="532.202" r="7.9" transform="rotate(-90 925.935 532.202)" fill="#7B86EA"/>
<circle cx="925.935" cy="489.876" r="7.9" transform="rotate(-90 925.935 489.876)" fill="#7B86EA"/>
<circle cx="962.969" cy="489.876" r="7.9" transform="rotate(-90 962.969 489.876)" fill="#7B86EA"/>
<circle cx="998.946" cy="405.225" r="7.9" transform="rotate(-90 998.946 405.225)" fill="#7B86EA"/>
<circle cx="998.946" cy="488.818" r="7.9" transform="rotate(-90 998.946 488.818)" fill="#7B86EA"/>
<circle cx="1814.83" cy="661.9" r="7.9" transform="rotate(-90 1814.83 661.9)" fill="#7B86EA"/>
<circle cx="1814.83" cy="621.9" r="7.9" transform="rotate(-90 1814.83 621.9)" fill="#7B86EA"/>
<circle cx="1848.83" cy="661.9" r="7.9" transform="rotate(-90 1848.83 661.9)" fill="#7B86EA"/>
<circle cx="1848.83" cy="700.9" r="7.9" transform="rotate(-90 1848.83 700.9)" fill="#7B86EA"/>
<circle cx="1813.83" cy="701.9" r="7.9" transform="rotate(-90 1813.83 701.9)" fill="#7B86EA"/>
<circle cx="1710.83" cy="701.9" r="7.9" transform="rotate(-90 1710.83 701.9)" fill="#7B86EA"/>
<circle cx="1675.83" cy="781.9" r="7.9" transform="rotate(-90 1675.83 781.9)" fill="#7B86EA"/>
<circle cx="1675.83" cy="740.9" r="7.9" transform="rotate(-90 1675.83 740.9)" fill="#7B86EA"/>
<circle cx="1710.83" cy="621.9" r="7.9" transform="rotate(-90 1710.83 621.9)" fill="#7B86EA"/>
<circle cx="1710.83" cy="661.9" r="7.9" transform="rotate(-90 1710.83 661.9)" fill="#7B86EA"/>
<circle cx="1745.83" cy="661.9" r="7.9" transform="rotate(-90 1745.83 661.9)" fill="#7B86EA"/>
<circle cx="1745.83" cy="581.9" r="7.9" transform="rotate(-90 1745.83 581.9)" fill="#7B86EA"/>
<circle cx="1745.83" cy="621.9" r="7.9" transform="rotate(-90 1745.83 621.9)" fill="#7B86EA"/>
<circle cx="1745.83" cy="781.9" r="7.9" transform="rotate(-90 1745.83 781.9)" fill="#7B86EA"/>
<circle cx="1710.83" cy="781.9" r="7.9" transform="rotate(-90 1710.83 781.9)" fill="#7B86EA"/>
<circle cx="1710.83" cy="741.9" r="7.9" transform="rotate(-90 1710.83 741.9)" fill="#7B86EA"/>
<circle cx="1745.83" cy="701.9" r="7.9" transform="rotate(-90 1745.83 701.9)" fill="#7B86EA"/>
<circle cx="1745.83" cy="741.9" r="7.9" transform="rotate(-90 1745.83 741.9)" fill="#7B86EA"/>
<circle cx="1779.83" cy="661.9" r="7.9" transform="rotate(-90 1779.83 661.9)" fill="#7B86EA"/>
<circle cx="1779.83" cy="621.9" r="7.9" transform="rotate(-90 1779.83 621.9)" fill="#7B86EA"/>
<circle cx="1779.83" cy="740.9" r="7.9" transform="rotate(-90 1779.83 740.9)" fill="#7B86EA"/>
<circle cx="363.551" cy="919.935" r="7.9" fill="#7B86EA"/>
<circle cx="278.9" cy="882.9" r="7.9" fill="#7B86EA"/>
<circle cx="322.284" cy="882.9" r="7.9" fill="#7B86EA"/>
<circle cx="1386.83" cy="926.527" r="7.9" transform="rotate(90 1386.83 926.527)" fill="#7B86EA"/>
<circle cx="278.9" cy="956.97" r="7.9" fill="#7B86EA"/>
<circle cx="278.9" cy="919.935" r="7.9" fill="#7B86EA"/>
<circle cx="321.225" cy="919.935" r="7.9" fill="#7B86EA"/>
<circle cx="363.551" cy="956.97" r="7.9" fill="#7B86EA"/>
<circle cx="322.284" cy="992.946" r="7.9" fill="#7B86EA"/>
<circle cx="1390.9" cy="1003.9" r="7.9" transform="rotate(90 1390.9 1003.9)" fill="#7B86EA"/>
<circle cx="1425.9" cy="963.9" r="7.9" transform="rotate(90 1425.9 963.9)" fill="#7B86EA"/>
<circle cx="1356.9" cy="1003.9" r="7.9" transform="rotate(90 1356.9 1003.9)" fill="#7B86EA"/>
<circle cx="1356.9" cy="964.9" r="7.9" transform="rotate(90 1356.9 964.9)" fill="#7B86EA"/>
<circle cx="1391.9" cy="963.9" r="7.9" transform="rotate(90 1391.9 963.9)" fill="#7B86EA"/>
<circle cx="1494.9" cy="963.9" r="7.9" transform="rotate(90 1494.9 963.9)" fill="#7B86EA"/>
<circle cx="1529.9" cy="924.9" r="7.9" transform="rotate(90 1529.9 924.9)" fill="#7B86EA"/>
<circle cx="1494.9" cy="1043.9" r="7.9" transform="rotate(90 1494.9 1043.9)" fill="#7B86EA"/>
<circle cx="1494.9" cy="1003.9" r="7.9" transform="rotate(90 1494.9 1003.9)" fill="#7B86EA"/>
<circle cx="1459.9" cy="1003.9" r="7.9" transform="rotate(90 1459.9 1003.9)" fill="#7B86EA"/>
<circle cx="1459.9" cy="1083.9" r="7.9" transform="rotate(90 1459.9 1083.9)" fill="#7B86EA"/>
<circle cx="1459.9" cy="1043.9" r="7.9" transform="rotate(90 1459.9 1043.9)" fill="#7B86EA"/>
<circle cx="1494.9" cy="923.9" r="7.9" transform="rotate(90 1494.9 923.9)" fill="#7B86EA"/>
<circle cx="1459.9" cy="963.9" r="7.9" transform="rotate(90 1459.9 963.9)" fill="#7B86EA"/>
<circle cx="1425.9" cy="1043.9" r="7.9" transform="rotate(90 1425.9 1043.9)" fill="#7B86EA"/>
<circle cx="1425.9" cy="924.9" r="7.9" transform="rotate(90 1425.9 924.9)" fill="#7B86EA"/>
<circle cx="239.9" cy="917.9" r="7.9" fill="#7B86EA"/>
<circle cx="305.924" cy="169.876" r="7.9" transform="rotate(180 305.924 169.876)" fill="#7B86EA"/>
<circle cx="263.598" cy="169.876" r="7.9" transform="rotate(180 263.598 169.876)" fill="#7B86EA"/>
<circle cx="305.924" cy="133.9" r="7.9" transform="rotate(180 305.924 133.9)" fill="#7B86EA"/>
<circle cx="263.598" cy="279.923" r="7.9" transform="rotate(180 263.598 279.923)" fill="#7B86EA"/>
<circle cx="305.924" cy="279.923" r="7.9" transform="rotate(180 305.924 279.923)" fill="#7B86EA"/>
<circle cx="305.924" cy="242.888" r="7.9" transform="rotate(180 305.924 242.888)" fill="#7B86EA"/>
<circle cx="221.273" cy="242.888" r="7.9" transform="rotate(180 221.273 242.888)" fill="#7B86EA"/>
<circle cx="305.924" cy="206.911" r="7.9" transform="rotate(180 305.924 206.911)" fill="#7B86EA"/>
<circle cx="263.598" cy="206.912" r="7.9" transform="rotate(180 263.598 206.912)" fill="#7B86EA"/>
<circle cx="143.9" cy="246.957" r="7.9" transform="rotate(180 143.9 246.957)" fill="#7B86EA"/>
<circle cx="103.9" cy="246.957" r="7.9" transform="rotate(180 103.9 246.957)" fill="#7B86EA"/>
<circle cx="143.9" cy="315.9" r="7.9" transform="rotate(180 143.9 315.9)" fill="#7B86EA"/>
<circle cx="143.9" cy="212.957" r="7.9" transform="rotate(180 143.9 212.957)" fill="#7B86EA"/>
<circle cx="182.9" cy="212.957" r="7.9" transform="rotate(180 182.9 212.957)" fill="#7B86EA"/>
<circle cx="183.9" cy="247.957" r="7.9" transform="rotate(180 183.9 247.957)" fill="#7B86EA"/>
<circle cx="222.9" cy="385.957" r="7.9" transform="rotate(180 222.9 385.957)" fill="#7B86EA"/>
<circle cx="263.9" cy="315.957" r="7.9" transform="rotate(180 263.9 315.957)" fill="#7B86EA"/>
<circle cx="263.9" cy="350.957" r="7.9" transform="rotate(180 263.9 350.957)" fill="#7B86EA"/>
<circle cx="223.9" cy="350.957" r="7.9" transform="rotate(180 223.9 350.957)" fill="#7B86EA"/>
<circle cx="223.9" cy="315.957" r="7.9" transform="rotate(180 223.9 315.957)" fill="#7B86EA"/>
<circle cx="143.9" cy="281.957" r="7.9" transform="rotate(180 143.9 281.957)" fill="#7B86EA"/>
<circle cx="103.9" cy="281.957" r="7.9" transform="rotate(180 103.9 281.957)" fill="#7B86EA"/>
<circle cx="222.9" cy="281.957" r="7.9" transform="rotate(180 222.9 281.957)" fill="#7B86EA"/>
<circle cx="303.9" cy="350.957" r="7.9" transform="rotate(180 303.9 350.957)" fill="#7B86EA"/>
<circle cx="199.9" cy="882.9" r="7.9" fill="#7B86EA"/>
<circle cx="199.9" cy="916.9" r="7.9" fill="#7B86EA"/>
<circle cx="199.9" cy="813.9" r="7.9" fill="#7B86EA"/>
<circle cx="119.9" cy="778.9" r="7.9" fill="#7B86EA"/>
<circle cx="160.9" cy="778.9" r="7.9" fill="#7B86EA"/>
<circle cx="239.9" cy="813.9" r="7.9" fill="#7B86EA"/>
<circle cx="239.9" cy="848.9" r="7.9" fill="#7B86EA"/>
<circle cx="119.9" cy="848.9" r="7.9" fill="#7B86EA"/>
<circle cx="119.9" cy="813.9" r="7.9" fill="#7B86EA"/>
<circle cx="159.9" cy="813.9" r="7.9" fill="#7B86EA"/>
<circle cx="199.9" cy="848.9" r="7.9" fill="#7B86EA"/>
<circle cx="159.9" cy="848.9" r="7.9" fill="#7B86EA"/>
<circle cx="239.9" cy="882.9" r="7.9" fill="#7B86EA"/>
<circle cx="160.9" cy="882.9" r="7.9" fill="#7B86EA"/>
<circle cx="998.981" cy="927.924" r="7.9" transform="rotate(-90 998.981 927.924)" fill="#7B86EA"/>
<circle cx="1476.95" cy="510.598" r="7.9" transform="rotate(-90 1476.95 510.598)" fill="#7B86EA"/>
<circle cx="961.946" cy="970.249" r="7.9" transform="rotate(-90 961.946 970.249)" fill="#7B86EA"/>
<circle cx="1034.96" cy="927.924" r="7.9" transform="rotate(-90 1034.96 927.924)" fill="#7B86EA"/>
<circle cx="1034.96" cy="969.191" r="7.9" transform="rotate(-90 1034.96 969.191)" fill="#7B86EA"/>
<circle cx="997.922" cy="970.249" r="7.9" transform="rotate(-90 997.922 970.249)" fill="#7B86EA"/>
<circle cx="888.935" cy="970.249" r="7.9" transform="rotate(-90 888.935 970.249)" fill="#7B86EA"/>
<circle cx="851.9" cy="1054.9" r="7.9" transform="rotate(-90 851.9 1054.9)" fill="#7B86EA"/>
<circle cx="851.9" cy="1011.52" r="7.9" transform="rotate(-90 851.9 1011.52)" fill="#7B86EA"/>
<circle cx="1366.9" cy="510.598" r="7.9" transform="rotate(-90 1366.9 510.598)" fill="#7B86EA"/>
<circle cx="888.935" cy="927.924" r="7.9" transform="rotate(-90 888.935 927.924)" fill="#7B86EA"/>
<circle cx="925.969" cy="927.924" r="7.9" transform="rotate(-90 925.969 927.924)" fill="#7B86EA"/>
<circle cx="1403.93" cy="468.273" r="7.9" transform="rotate(-90 1403.93 468.273)" fill="#7B86EA"/>
<circle cx="1403.93" cy="510.598" r="7.9" transform="rotate(-90 1403.93 510.598)" fill="#7B86EA"/>
<circle cx="925.969" cy="1054.9" r="7.9" transform="rotate(-90 925.969 1054.9)" fill="#7B86EA"/>
<circle cx="888.935" cy="1054.9" r="7.9" transform="rotate(-90 888.935 1054.9)" fill="#7B86EA"/>
<circle cx="925.969" cy="970.249" r="7.9" transform="rotate(-90 925.969 970.249)" fill="#7B86EA"/>
<circle cx="925.969" cy="1012.57" r="7.9" transform="rotate(-90 925.969 1012.57)" fill="#7B86EA"/>
<circle cx="1439.91" cy="510.598" r="7.9" transform="rotate(-90 1439.91 510.598)" fill="#7B86EA"/>
<circle cx="961.946" cy="1011.52" r="7.9" transform="rotate(-90 961.946 1011.52)" fill="#7B86EA"/>
<circle cx="1579.87" cy="390.9" r="7.9" transform="rotate(-90 1579.87 390.9)" fill="#7B86EA"/>
<circle cx="1510.87" cy="390.9" r="7.9" transform="rotate(-90 1510.87 390.9)" fill="#7B86EA"/>
<circle cx="1475.87" cy="470.9" r="7.9" transform="rotate(-90 1475.87 470.9)" fill="#7B86EA"/>
<circle cx="1475.87" cy="429.9" r="7.9" transform="rotate(-90 1475.87 429.9)" fill="#7B86EA"/>
<circle cx="1545.87" cy="470.9" r="7.9" transform="rotate(-90 1545.87 470.9)" fill="#7B86EA"/>
<circle cx="1510.87" cy="470.9" r="7.9" transform="rotate(-90 1510.87 470.9)" fill="#7B86EA"/>
<circle cx="1510.87" cy="430.9" r="7.9" transform="rotate(-90 1510.87 430.9)" fill="#7B86EA"/>
<circle cx="1545.87" cy="390.9" r="7.9" transform="rotate(-90 1545.87 390.9)" fill="#7B86EA"/>
<circle cx="1545.87" cy="430.9" r="7.9" transform="rotate(-90 1545.87 430.9)" fill="#7B86EA"/>
<circle cx="1579.87" cy="429.9" r="7.9" transform="rotate(-90 1579.87 429.9)" fill="#7B86EA"/>
</g>
<defs>
<clipPath id="clip0_500_5">
<rect width="1920" height="1084" fill="white"/>
</clipPath>
</defs>
</svg>
